<svg width="147" height="60" viewBox="0 0 147 60" fill="none" xmlns="http://www.w3.org/2000/svg">
<path d="M6.96489 58.9614C5.88211 58.9614 4.95856 58.8181 4.19424 58.5315C2.98408 58.0856 2.1083 57.5602 1.56691 56.9551C0.993672 56.3818 0.707054 55.7608 0.707054 55.0921C0.707054 54.2322 1.13698 53.3246 1.99684 52.3692C2.82484 51.4456 3.98724 50.538 5.48402 49.6463C6.98081 48.7865 8.70052 48.0221 10.6432 47.3534C12.5858 46.7164 14.6558 46.2387 16.8532 45.9203C17.8405 45.761 18.9232 45.6337 20.1016 45.5381C21.3117 45.4426 22.5219 45.347 23.7321 45.2515C24.9741 45.1878 26.0887 45.156 27.0759 45.156C28.2543 43.1496 29.2096 41.2548 29.9421 39.4714C30.7064 37.688 31.3752 35.6339 31.9484 33.3091L32.1395 32.5448C31.5344 33.118 30.6746 33.8186 29.56 34.6466C28.4772 35.4428 27.2033 36.2549 25.7384 37.0829C24.3053 37.879 22.7607 38.5478 21.1047 39.0892C19.4805 39.6306 17.8086 39.9013 16.0889 39.9013C14.7513 39.9013 13.4616 39.6943 12.2196 39.2803C10.882 38.8026 9.67184 38.0064 8.58906 36.8918C7.53812 35.7453 6.69419 34.3441 6.05726 32.6881C5.45218 31.0002 5.14964 29.1372 5.14964 27.099C5.14964 25.6022 5.34072 24.0099 5.72287 22.322C6.10503 20.6023 6.72604 18.8508 7.58589 17.0674C6.59865 16.0483 5.81841 14.9177 5.24518 13.6757C4.70379 12.4337 4.43309 11.1599 4.43309 9.85415C4.43309 8.70768 4.67194 7.57713 5.14964 6.4625C5.62733 5.31603 6.37573 4.21733 7.39481 3.16639C7.68143 2.84793 7.95213 2.6887 8.2069 2.6887C8.33428 2.6887 8.39798 2.75239 8.39798 2.87978C8.39798 3.07085 8.28651 3.29378 8.06359 3.54855C7.33112 4.44025 6.78973 5.37972 6.43942 6.36696C6.08911 7.35421 5.91395 8.34145 5.91395 9.32868C5.91395 10.4433 6.12095 11.542 6.53496 12.6248C6.98081 13.7076 7.60182 14.7107 8.39798 15.6343C8.55721 15.3158 8.71644 14.9974 8.87567 14.6789C9.06675 14.3604 9.25783 14.042 9.44891 13.7235C10.9775 11.2395 12.8406 9.10576 15.038 7.32236C17.2672 5.53896 19.6398 4.16956 22.1557 3.21416C24.6715 2.22692 27.1237 1.7333 29.5122 1.7333C29.9262 1.7333 30.3243 1.74923 30.7064 1.78107C31.1204 1.81292 31.5344 1.86069 31.9484 1.92438C35.0375 2.40208 37.3464 3.43709 38.875 5.02941C40.4037 6.62174 41.168 8.40514 41.168 10.3796C41.168 11.749 40.7858 13.1184 40.0215 14.4878C39.2891 15.8572 38.1585 17.1151 36.6299 18.2616C35.1331 19.4081 33.2541 20.3316 30.993 21.0323C28.7638 21.7329 26.1683 22.115 23.2066 22.1787C20.8818 22.2106 18.5888 21.924 16.3277 21.3189C14.0666 20.682 12.1559 19.8539 10.5954 18.8349C9.79922 20.5227 9.21006 22.1787 8.8279 23.8029C8.47759 25.3952 8.30244 26.892 8.30244 28.2933C8.30244 30.6499 8.79606 32.6721 9.7833 34.36C10.7705 36.0479 12.1399 37.1784 13.8915 37.7517C14.401 37.9109 14.9106 38.0224 15.4201 38.086C15.9615 38.1497 16.487 38.1816 16.9965 38.1816C18.4296 38.1816 19.8627 37.9746 21.2958 37.5606C22.7607 37.1147 24.1142 36.5415 25.3562 35.8409C26.5982 35.1402 27.6492 34.4078 28.509 33.6435C29.4007 32.8473 29.9899 32.1148 30.2765 31.4461C31.009 29.79 31.7255 28.6436 32.4261 28.0066C33.1586 27.3379 33.8115 27.0035 34.3847 27.0035C34.8624 27.0035 35.2605 27.2264 35.5789 27.6723C35.9292 28.0863 36.0566 28.6595 35.9611 29.392C35.6426 32.0352 34.9102 34.5989 33.7637 37.0829C32.6491 39.5669 31.2 42.2579 29.4166 45.156C31.5822 45.1878 33.5248 45.2993 35.2446 45.4904C36.9961 45.7133 38.5725 45.9999 39.9738 46.3502C40.3559 46.4457 40.6107 46.5572 40.7381 46.6846C40.8973 46.8438 40.9769 46.9712 40.9769 47.0668C40.9769 47.2897 40.7858 47.4011 40.4037 47.4011C40.2126 47.4011 39.9419 47.3534 39.5916 47.2578C38.8591 47.0668 37.8878 46.8916 36.6776 46.7324C35.4675 46.605 34.1618 46.5094 32.7605 46.4457C31.3911 46.3821 30.0695 46.3502 28.7956 46.3502C27.4581 48.261 25.8658 49.9807 24.0187 51.5093C22.2034 53.0698 20.2767 54.4074 18.2385 55.522C16.2004 56.6366 14.194 57.4805 12.2196 58.0538C10.2769 58.6589 8.52536 58.9614 6.96489 58.9614ZM21.9168 20.7456C22.2671 20.7456 22.6174 20.7456 22.9677 20.7456C23.318 20.7138 23.6684 20.682 24.0187 20.6501C27.2352 20.3316 29.958 19.5992 32.1873 18.4527C34.4484 17.2744 36.1522 15.8891 37.2986 14.2967C38.477 12.7044 39.0661 11.1439 39.0661 9.6153C39.0661 8.11852 38.4929 6.79689 37.3464 5.65042C36.2318 4.4721 34.5121 3.70778 32.1873 3.35747C31.8688 3.29378 31.5981 3.26193 31.3752 3.26193C31.1841 3.26193 30.9134 3.26193 30.5631 3.26193C28.4931 3.26193 26.3435 3.75555 24.1142 4.74279C21.9168 5.73003 19.8149 7.11536 17.8086 8.89876C15.8341 10.6503 14.1303 12.6885 12.6973 15.0133C12.3469 15.6184 12.0762 16.0801 11.8852 16.3986C11.6941 16.7171 11.4712 17.0992 11.2164 17.5451C12.5221 18.5323 14.0985 19.3126 15.9456 19.8858C17.8245 20.459 19.8149 20.7456 21.9168 20.7456ZM6.91712 57.4805C8.15913 57.4805 9.62407 57.2417 11.3119 56.764C12.9998 56.3182 14.7513 55.6175 16.5666 54.6621C18.4137 53.7386 20.1812 52.5921 21.869 51.2227C23.5569 49.8533 25.0378 48.261 26.3116 46.4457C24.783 46.4776 23.2703 46.5413 21.7735 46.6368C20.3086 46.7642 18.8436 46.9553 17.3787 47.2101C15.8182 47.4648 14.194 47.8948 12.5062 48.4998C10.8502 49.1368 9.3056 49.8692 7.87251 50.6973C6.47127 51.5253 5.32479 52.3533 4.43309 53.1813C3.57324 54.0411 3.14331 54.8214 3.14331 55.522C3.14331 55.936 3.31846 56.3022 3.66878 56.6207C4.05093 56.9392 4.64009 57.178 5.43625 57.3372C5.88211 57.4328 6.37573 57.4805 6.91712 57.4805ZM41.5095 41C40.2993 41 39.4076 40.6019 38.8344 39.8058C38.2611 38.9777 37.9745 37.9746 37.9745 36.7963C37.9745 35.3632 38.3089 33.8664 38.9777 32.3059C39.6146 30.841 40.4267 29.5034 41.4139 28.2933C42.4012 27.0831 43.468 26.1118 44.6145 25.3793C45.761 24.615 46.8756 24.2328 47.9584 24.2328C49.1685 24.2328 50.0603 24.6309 50.6335 25.4271C51.2067 26.2232 51.4933 27.2264 51.4933 28.4366C51.4933 29.9015 51.159 31.3983 50.4902 32.9269C50.108 33.7868 49.5666 34.7422 48.866 35.7931C48.1654 36.8122 47.3692 37.7517 46.4775 38.6115C46.6686 38.9618 46.9393 39.2644 47.2896 39.5191C47.6399 39.7421 48.1176 39.8535 48.7227 39.8535C49.487 39.8535 50.2036 39.5351 50.8723 38.8981C51.573 38.2612 52.2099 37.4969 52.7831 36.6052C53.3564 35.6816 53.8659 34.7581 54.3118 33.8345C54.7576 32.911 55.1238 32.1626 55.4105 31.5894C55.506 31.3983 55.6652 31.3027 55.8882 31.3027C56.0155 31.3027 56.1111 31.3664 56.1748 31.4938C56.2385 31.5894 56.2225 31.7486 56.127 31.9715C55.9359 32.4492 55.6175 33.1658 55.1716 34.1212C54.7258 35.0447 54.1844 36.016 53.5474 37.0351C52.9105 38.0224 52.178 38.8663 51.35 39.5669C50.522 40.2675 49.5985 40.6178 48.5794 40.6178C47.8788 40.6178 47.2737 40.5064 46.7641 40.2835C46.2546 40.0287 45.8406 39.7261 45.5221 39.3758C44.8534 39.8854 44.1846 40.2835 43.5158 40.5701C42.847 40.8567 42.1782 41 41.5095 41ZM42.226 39.9491C43.0859 39.9491 44.0094 39.5351 44.9967 38.7071C44.7419 38.3249 44.5508 37.9268 44.4234 37.5128C44.296 37.0988 44.2323 36.7166 44.2323 36.3663C44.2323 35.7931 44.3597 35.2995 44.6145 34.8855C44.9011 34.4715 45.331 34.2645 45.9043 34.2645C46.3183 34.2645 46.6527 34.4237 46.9074 34.7422C47.1941 35.0288 47.3374 35.3632 47.3374 35.7453C47.3374 35.8409 47.3215 35.9364 47.2896 36.032C47.2896 36.0956 47.2737 36.1753 47.2418 36.2708C47.7832 35.5383 48.2928 34.6785 48.7705 33.6912C49.8214 31.4301 50.3469 29.5671 50.3469 28.1022C50.3469 27.3697 50.2036 26.7965 49.9169 26.3825C49.6303 25.9685 49.2004 25.7615 48.6272 25.7615C47.9584 25.7615 47.2259 26.0481 46.4298 26.6213C45.6654 27.1946 44.917 27.9589 44.1846 28.9143C43.484 29.8697 42.8629 30.9365 42.3216 32.1148C41.812 33.1976 41.398 34.2485 41.0795 35.2676C40.7929 36.2549 40.6496 37.1147 40.6496 37.8472C40.6496 38.4841 40.777 38.9937 41.0318 39.3758C41.2865 39.758 41.6846 39.9491 42.226 39.9491ZM57.606 41.1433C56.2684 41.1433 55.3608 40.793 54.8831 40.0924C54.4054 39.3599 54.1666 38.5001 54.1666 37.5128C54.1666 36.4937 54.3099 35.4428 54.5965 34.36C54.8831 33.2772 55.1379 32.3696 55.3608 31.6371C55.8704 29.8537 56.5073 27.9589 57.2716 25.9525C58.0678 23.9144 58.9276 21.924 59.8512 19.9813C60.8066 18.0068 61.746 16.2394 62.6696 14.6789C63.4021 13.4369 64.1823 12.5133 65.0103 11.9082C65.8702 11.2713 66.6185 10.9529 67.2555 10.9529C67.765 10.9529 68.1631 11.1439 68.4497 11.5261C68.7682 11.8764 68.9274 12.4178 68.9274 13.1503C68.9274 13.6598 68.8319 14.2649 68.6408 14.9655C68.4816 15.6661 68.1949 16.4623 67.7809 17.354C66.6663 19.838 65.3288 22.322 63.7683 24.8061C62.2397 27.2901 60.297 29.6149 57.9404 31.7804C57.813 32.1945 57.6378 32.6881 57.4149 33.2613C57.2238 33.8027 57.0487 34.36 56.8895 34.9332C56.6984 35.7931 56.6028 36.5256 56.6028 37.1307C56.6028 38.1179 56.7939 38.8663 57.1761 39.3758C57.5901 39.8535 58.0837 40.0924 58.6569 40.0924C59.1665 40.0924 59.7079 39.9172 60.2811 39.5669C60.8543 39.1848 61.3957 38.6434 61.9053 37.9427C62.6696 36.8281 63.3543 35.6976 63.9594 34.5511C64.5963 33.3728 65.074 32.4651 65.3925 31.8282C65.5835 31.4779 65.7905 31.3027 66.0135 31.3027C66.1727 31.3027 66.2523 31.3983 66.2523 31.5894C66.2523 31.7486 66.2045 31.9238 66.109 32.1148C65.8224 32.7518 65.4402 33.5798 64.9625 34.5989C64.5167 35.5861 63.9434 36.5893 63.2428 37.6084C62.574 38.5956 61.762 39.4395 60.8066 40.1401C59.883 40.8089 58.8162 41.1433 57.606 41.1433ZM58.3225 30.2518C59.469 29.0735 60.5836 27.72 61.6664 26.1914C62.7492 24.6309 63.7524 23.0227 64.6759 21.3667C65.6313 19.6788 66.4275 18.0865 67.0644 16.5897C67.2873 16.112 67.4625 15.5865 67.5899 15.0133C67.7491 14.44 67.8287 13.9623 67.8287 13.5802C67.8287 13.1343 67.7173 12.9114 67.4943 12.9114C67.3669 12.9114 67.1759 13.0388 66.9211 13.2936C66.6663 13.5165 66.3319 13.9146 65.9179 14.4878C65.3128 15.284 64.6441 16.3668 63.9116 17.7362C63.211 19.1056 62.4944 20.5705 61.762 22.131C61.0295 23.6914 60.3607 25.2042 59.7556 26.6691C59.1506 28.1022 58.6729 29.2964 58.3225 30.2518ZM75.9443 41C75.0845 41 74.3679 40.5701 73.7947 39.7102C73.6355 39.4554 73.4922 39.1211 73.3648 38.7071C73.2374 38.2931 73.1737 37.8313 73.1737 37.3217C73.1737 37.0351 73.1896 36.7485 73.2215 36.4619C73.2533 36.1434 73.317 35.8249 73.4125 35.5065C72.9667 36.2071 72.4412 36.9873 71.8361 37.8472C71.2629 38.6752 70.5941 39.4077 69.8298 40.0446C69.0973 40.6497 68.2693 40.9522 67.3458 40.9522C67.0273 40.9522 66.6929 40.9045 66.3426 40.8089C65.4828 40.5541 64.8618 40.1083 64.4796 39.4714C64.1293 38.8344 63.9541 38.0701 63.9541 37.1784C63.9541 36.1912 64.1452 35.1084 64.5274 33.9301C64.9414 32.7518 65.4509 31.6053 66.056 30.4907C66.6929 29.376 67.3458 28.4206 68.0146 27.6245C68.97 26.5099 70.0687 25.6182 71.3107 24.9494C72.5527 24.2806 73.8106 23.9462 75.0845 23.9462C76.231 23.9462 77.3137 24.2488 78.3328 24.8538C78.8105 23.9621 79.3201 22.9749 79.8615 21.8921C80.4028 20.7775 80.9442 19.6788 81.4856 18.596C82.027 17.5132 82.5047 16.526 82.9187 15.6343C83.3327 14.7107 83.6512 14.0101 83.8741 13.5324C84.3518 12.4178 84.7977 11.7172 85.2117 11.4306C85.6575 11.1121 86.183 10.9529 86.7881 10.9529C87.1384 10.9529 87.5205 11.0006 87.9345 11.0962C88.3804 11.1599 88.8103 11.1758 89.2243 11.1439C89.0332 11.335 88.6352 11.8923 88.0301 12.8159C87.4568 13.7076 86.7721 14.854 85.976 16.2553C85.1798 17.6565 84.32 19.2011 83.3964 20.889C82.5047 22.545 81.613 24.2328 80.7213 25.9525C79.8615 27.6404 79.0494 29.2487 78.2851 30.7773C77.5526 32.2741 76.9634 33.5638 76.5176 34.6466C76.3902 34.9014 76.1991 35.4269 75.9443 36.223C75.7214 36.9873 75.6099 37.6561 75.6099 38.2294C75.6099 38.6434 75.7055 39.0096 75.8966 39.3281C76.0876 39.6147 76.4061 39.758 76.852 39.758C77.457 39.758 78.0621 39.4554 78.6672 38.8504C79.3041 38.2134 79.9092 37.4491 80.4825 36.5574C81.0557 35.6339 81.5652 34.7422 82.0111 33.8823C82.4569 32.9906 82.7913 32.29 83.0143 31.7804C83.1735 31.4301 83.3646 31.255 83.5875 31.255C83.7786 31.255 83.8741 31.3983 83.8741 31.6849C83.8741 31.7168 83.8741 31.7804 83.8741 31.876C83.8741 31.9397 83.8423 32.0193 83.7786 32.1148C83.4919 32.7836 83.0939 33.6116 82.5843 34.5989C82.1066 35.5861 81.5334 36.5733 80.8646 37.5606C80.1958 38.5478 79.4474 39.3758 78.6194 40.0446C77.7914 40.6815 76.8997 41 75.9443 41ZM67.6802 39.5669C68.126 39.5669 68.6833 39.3281 69.3521 38.8504C70.0209 38.3408 70.7374 37.5447 71.5018 36.4619C72.3935 35.188 73.4125 33.5957 74.559 31.6849C75.7055 29.7741 76.836 27.7519 77.9507 25.6182C77.5367 25.236 77.059 25.0449 76.5176 25.0449C75.6259 25.0449 74.6227 25.4589 73.5081 26.2869C72.4253 27.1149 71.3584 28.1659 70.3075 29.4397C69.2884 30.7136 68.4286 32.0034 67.7279 33.3091C67.2502 34.2008 66.8999 35.0129 66.677 35.7453C66.4859 36.4778 66.3904 37.1147 66.3904 37.6561C66.3904 38.93 66.8203 39.5669 67.6802 39.5669ZM78.5306 41.2388C79.7089 38.9777 80.8236 36.7166 81.8745 34.4556C82.9254 32.1626 83.9923 29.997 85.0751 27.9589C85.712 26.8124 86.2375 26.0162 86.6515 25.5704C87.0973 25.0927 87.6865 24.8538 88.419 24.8538C88.6737 24.8538 88.9444 24.9016 89.231 24.9971C89.5177 25.0608 89.8043 25.0927 90.0909 25.0927C90.282 25.0927 90.4253 25.0768 90.5208 25.0449C90.075 25.2997 89.5017 25.9366 88.8011 26.9557C88.1005 27.9429 87.3839 29.0894 86.6515 30.3951C85.919 31.7008 85.2662 32.9269 84.6929 34.0734C85.298 33.3409 85.919 32.6085 86.5559 31.876C87.2247 31.1435 87.9572 30.4429 88.7533 29.7741C89.454 29.169 90.1864 28.5162 90.9507 27.8156C91.7469 27.0831 92.5271 26.4621 93.2915 25.9525C94.0558 25.443 94.7246 25.1882 95.2978 25.1882C95.5207 25.1882 95.664 25.2042 95.7277 25.236C96.3328 25.4908 96.6353 25.9048 96.6353 26.478C96.6353 26.6691 96.5557 26.9557 96.3965 27.3379C95.9825 28.4206 95.4411 29.5353 94.7723 30.6817C94.1354 31.7964 93.5303 32.9269 92.9571 34.0734C93.4348 33.5002 94.0239 32.7995 94.7246 31.9715C95.457 31.1435 96.1895 30.411 96.922 29.7741C97.6226 29.1372 98.5143 28.4684 99.5971 27.7678C100.68 27.0672 101.747 26.4621 102.798 25.9525C103.849 25.443 104.692 25.1882 105.329 25.1882C105.552 25.1882 105.712 25.2042 105.807 25.236C105.807 25.236 105.632 25.5545 105.282 26.1914C104.931 26.7965 104.485 27.6086 103.944 28.6276C103.435 29.6149 102.909 30.6817 102.368 31.8282C101.826 32.9428 101.333 34.0256 100.887 35.0766C100.473 36.0956 100.202 36.9555 100.075 37.6561C99.9792 38.0701 99.9315 38.4523 99.9315 38.8026C99.9315 39.3121 100.027 39.6465 100.218 39.8058C100.409 39.965 100.616 40.0446 100.839 40.0446C101.476 40.0446 102.129 39.7102 102.798 39.0414C103.466 38.3727 104.103 37.5765 104.708 36.653C105.345 35.6976 105.903 34.774 106.38 33.8823C106.858 32.9588 107.208 32.2581 107.431 31.7804C107.622 31.4301 107.813 31.255 108.005 31.255C108.196 31.255 108.291 31.3824 108.291 31.6371C108.291 31.7964 108.243 31.9715 108.148 32.1626C107.766 32.8951 107.304 33.7709 106.763 34.7899C106.253 35.809 105.664 36.8122 104.995 37.7994C104.326 38.7548 103.578 39.5669 102.75 40.2357C101.954 40.8726 101.094 41.1911 100.17 41.1911C99.5015 41.1911 98.8168 40.9682 98.1162 40.5223C97.4474 40.0765 97.113 39.2484 97.113 38.0383C97.113 37.3695 97.2563 36.5574 97.543 35.602C97.7659 34.9651 98.1003 34.2326 98.5461 33.4046C99.0238 32.5766 99.5971 31.6212 100.266 30.5384C100.584 29.997 100.744 29.5671 100.744 29.2487C100.744 28.8665 100.552 28.6754 100.17 28.6754C99.8518 28.6754 99.406 28.8346 98.8327 29.1531C98.2914 29.4716 97.6067 30.0289 96.7786 30.8251C96.2691 31.3027 95.664 31.9715 94.9634 32.8314C94.2946 33.6594 93.6099 34.567 92.9093 35.5543C92.2087 36.5415 91.6036 37.5128 91.0941 38.4682C90.5845 39.4236 90.2501 40.2675 90.0909 41C89.6132 41 89.231 40.8089 88.9444 40.4268C88.6578 40.0128 88.5145 39.5351 88.5145 38.9937C88.5145 38.8981 88.5145 38.8026 88.5145 38.7071C88.5145 38.6115 88.5304 38.5001 88.5623 38.3727C88.7215 37.3854 88.9763 36.4619 89.3266 35.602C89.6769 34.7422 90.075 33.8505 90.5208 32.9269C90.8711 32.2581 91.2214 31.5416 91.5718 30.7773C91.9221 29.9811 92.0972 29.376 92.0972 28.962C92.0972 28.7073 92.0017 28.5799 91.8106 28.5799C91.5877 28.5799 91.2214 28.755 90.7119 29.1053C90.2024 29.4238 89.5017 29.997 88.61 30.8251C87.8139 31.5894 86.8426 32.6881 85.6961 34.1212C84.5815 35.5543 83.3554 37.5924 82.0178 40.2357C81.8267 40.586 81.6038 40.8089 81.349 40.9045C81.0943 40.9682 80.6962 41 80.1548 41C79.8045 41 79.5179 41 79.2949 41C79.0402 41.0318 78.7854 41.1115 78.5306 41.2388ZM117.644 41.1433C117.294 41.1752 116.896 41.0955 116.45 40.9045C116.004 40.7134 115.606 40.3631 115.255 39.8535C114.937 39.344 114.778 38.6274 114.778 37.7039C114.778 36.9396 114.921 36.016 115.208 34.9332C114.826 35.5383 114.332 36.2867 113.727 37.1784C113.122 38.0383 112.469 38.8026 111.768 39.4714C111.163 40.0446 110.59 40.4586 110.049 40.7134C109.507 40.9682 109.014 41.0955 108.568 41.0955C107.74 41.0955 107.071 40.7293 106.561 39.9968C106.052 39.2325 105.797 38.2453 105.797 37.0351C105.797 35.7613 106.116 34.3122 106.752 32.6881C107.389 31.0639 108.424 29.376 109.857 27.6245C110.781 26.5099 111.896 25.6182 113.201 24.9494C114.539 24.2488 115.845 23.8984 117.118 23.8984C117.851 23.8984 118.552 24.0258 119.22 24.2806C119.889 24.5035 120.478 24.8857 120.988 25.4271C121.211 25.65 121.322 25.9048 121.322 26.1914C121.322 26.3825 121.243 26.5417 121.083 26.6691C120.924 26.7965 120.717 26.8283 120.462 26.7646C120.112 25.65 119.364 25.0927 118.217 25.0927C117.676 25.0927 117.055 25.2678 116.354 25.6182C115.271 26.1914 114.141 27.1309 112.963 28.4366C111.816 29.7423 110.813 31.0957 109.953 32.497C109.826 32.6881 109.619 33.0543 109.332 33.5957C109.077 34.1371 108.822 34.7422 108.568 35.4109C108.313 36.0797 108.138 36.7326 108.042 37.3695C108.01 37.5606 107.994 37.7039 107.994 37.7994C107.994 37.8631 107.994 37.9746 107.994 38.1338C107.994 39.1848 108.393 39.7102 109.189 39.7102C110.144 39.7102 111.227 39.0096 112.437 37.6084C113.265 36.5893 114.013 35.5224 114.682 34.4078C115.351 33.2932 116.036 32.0989 116.736 30.8251C117.214 29.9652 117.66 29.2487 118.074 28.6754C118.488 28.1022 119.077 27.8156 119.841 27.8156C120.192 27.8156 120.542 27.8633 120.892 27.9589C121.243 28.0544 121.609 28.0703 121.991 28.0066C121.736 28.2614 121.386 28.7391 120.94 29.4397C120.526 30.1404 120.08 30.9365 119.602 31.8282C119.125 32.7199 118.695 33.6275 118.313 34.5511C117.931 35.4746 117.66 36.2708 117.501 36.9396C117.469 37.1307 117.421 37.4013 117.357 37.7517C117.325 38.102 117.31 38.3567 117.31 38.516C117.31 39.4077 117.564 39.8535 118.074 39.8535C118.583 39.8535 119.125 39.551 119.698 38.9459C120.303 38.3408 120.892 37.5924 121.466 36.7007C122.039 35.809 122.564 34.9173 123.042 34.0256C123.52 33.1021 123.902 32.3537 124.188 31.7804C124.316 31.462 124.507 31.3027 124.762 31.3027C124.921 31.3027 125 31.4142 125 31.6371C125 31.7327 124.953 31.9078 124.857 32.1626C124.475 32.9588 124.013 33.8664 123.472 34.8855C122.93 35.8727 122.341 36.844 121.704 37.7994C121.067 38.723 120.399 39.5032 119.698 40.1401C119.029 40.7452 118.345 41.0796 117.644 41.1433ZM126.46 41C125.569 41 124.773 40.6975 124.072 40.0924C123.371 39.4554 123.021 38.4682 123.021 37.1307C123.021 36.0797 123.212 34.7899 123.594 33.2613C124.008 31.7008 124.502 30.0926 125.075 28.4366C125.68 26.7487 126.269 25.2201 126.843 23.8507H124.311C124.088 23.8507 123.976 23.6914 123.976 23.373C123.976 23.2137 124.008 23.0704 124.072 22.9431C124.167 22.8157 124.295 22.752 124.454 22.752H127.32C127.862 21.5418 128.435 20.3635 129.04 19.217C129.645 18.0705 130.234 16.9878 130.807 15.9687C131.54 14.6948 132.32 13.7394 133.148 13.1025C133.976 12.4656 134.693 12.1471 135.298 12.1471C135.776 12.1471 136.174 12.3382 136.492 12.7203C136.811 13.0706 136.97 13.612 136.97 14.3445C136.97 14.7904 136.874 15.4114 136.683 16.2075C136.492 16.9718 136.19 17.7839 135.776 18.6438C135.553 19.0896 135.234 19.7266 134.82 20.5546C134.438 21.3826 134.056 22.115 133.674 22.752H135.967C136.19 22.752 136.301 22.9112 136.301 23.2297C136.301 23.3571 136.269 23.5004 136.205 23.6596C136.142 23.787 136.046 23.8507 135.919 23.8507H133.1C132.304 25.2201 131.397 26.5576 130.378 27.8633C129.358 29.169 128.148 30.4747 126.747 31.7804C126.652 32.0671 126.524 32.4811 126.365 33.0225C126.238 33.5638 126.11 34.1212 125.983 34.6944C125.887 35.2358 125.792 35.6976 125.696 36.0797C125.632 36.4619 125.601 36.653 125.601 36.653C125.505 37.067 125.457 37.4491 125.457 37.7994C125.457 38.4682 125.616 38.9618 125.935 39.2803C126.253 39.5669 126.62 39.7102 127.034 39.7102C127.288 39.7102 127.543 39.6784 127.798 39.6147C128.053 39.5191 128.339 39.3599 128.658 39.137C129.772 38.3408 130.744 37.258 131.572 35.8886C132.432 34.5192 133.18 33.1976 133.817 31.9238C134.008 31.5416 134.199 31.3505 134.39 31.3505C134.518 31.3505 134.581 31.4461 134.581 31.6371C134.581 31.7327 134.534 31.9078 134.438 32.1626C133.737 33.6275 133.148 34.8059 132.67 35.6976C132.193 36.5893 131.731 37.3377 131.285 37.9427C130.839 38.516 130.314 39.0892 129.709 39.6624C129.263 40.1083 128.753 40.4427 128.18 40.6656C127.607 40.8885 127.034 41 126.46 41ZM130.234 22.752H132.67C133.116 21.924 133.53 21.1119 133.913 20.3157C134.327 19.5196 134.693 18.7234 135.011 17.9272C135.234 17.4177 135.425 16.8445 135.584 16.2075C135.744 15.5706 135.823 15.077 135.823 14.7267C135.823 14.249 135.712 14.0101 135.489 14.0101C135.33 14.0101 135.091 14.1534 134.772 14.44C134.486 14.6948 134.12 15.1407 133.674 15.7776C133.1 16.5738 132.527 17.6088 131.954 18.8826C131.413 20.1246 130.839 21.4144 130.234 22.752ZM127.129 30.2518C128.053 29.2964 128.913 28.2773 129.709 27.1946C130.537 26.1118 131.301 24.9971 132.002 23.8507H129.757C129.247 25.029 128.769 26.1755 128.323 27.2901C127.878 28.4047 127.48 29.392 127.129 30.2518ZM137.121 41.1911C135.943 41.1911 134.876 40.8089 133.921 40.0446C132.997 39.2803 132.535 38.1179 132.535 36.5574C132.535 35.1243 132.886 33.5957 133.586 31.9715C134.287 30.3155 135.179 28.8665 136.261 27.6245C137.185 26.5417 138.22 25.65 139.366 24.9494C140.513 24.2488 141.596 23.8984 142.615 23.8984C143.315 23.8984 143.921 24.0895 144.43 24.4717C144.971 24.8857 145.242 25.4748 145.242 26.2392C145.242 27.0353 144.94 27.9111 144.335 28.8665C143.729 29.8219 142.87 30.7136 141.755 31.5416C141.277 31.8919 140.672 32.2263 139.94 32.5448C139.207 32.8632 138.475 33.1339 137.742 33.3568C137.01 33.5479 136.405 33.6435 135.927 33.6435C135.768 34.0256 135.609 34.5352 135.449 35.1721C135.322 35.809 135.258 36.4619 135.258 37.1307C135.258 37.9268 135.418 38.6434 135.736 39.2803C136.054 39.9172 136.644 40.2357 137.503 40.2357C138.554 40.2357 139.51 39.9331 140.37 39.3281C141.229 38.723 141.994 37.9746 142.663 37.0829C143.331 36.1593 143.889 35.2358 144.335 34.3122C144.812 33.3887 145.194 32.6085 145.481 31.9715C145.672 31.5257 145.927 31.3027 146.245 31.3027C146.405 31.3027 146.484 31.3824 146.484 31.5416C146.484 31.669 146.436 31.8282 146.341 32.0193C145.895 32.9747 145.417 33.9938 144.908 35.0766C144.398 36.1275 143.793 37.1307 143.093 38.086C142.392 39.0096 141.548 39.758 140.561 40.3312C139.605 40.9045 138.459 41.1911 137.121 41.1911ZM136.261 32.7836C136.707 32.7836 137.456 32.6244 138.507 32.3059C139.558 31.9556 140.513 31.4142 141.373 30.6817C142.201 29.9493 142.838 29.1531 143.284 28.2933C143.729 27.4016 143.952 26.6532 143.952 26.0481C143.952 25.3475 143.698 24.9971 143.188 24.9971C142.806 24.9971 142.28 25.2519 141.612 25.7615C140.943 26.271 140.115 27.1309 139.128 28.341C138.523 29.1053 137.949 29.9334 137.408 30.8251C136.867 31.7168 136.484 32.3696 136.261 32.7836Z" fill="white"/>
<path d="M43.1894 43.4464L39.3463 50.7549H38.23L42.6284 42.6689H43.3449L43.1894 43.4464ZM44.1112 50.7549L42.7728 43.3242L42.8784 42.6689H43.5448L45.1387 50.7549H44.1112ZM44.4833 47.7615L44.3278 48.639H39.9127L40.0682 47.7615H44.4833ZM48.6263 42.2246L47.1435 50.7549H46.1383L47.6156 42.2246H48.6263ZM50.5645 46.001L49.7426 50.7549H48.7318L49.7759 44.7459H50.7311L50.5645 46.001ZM50.1147 47.5227L49.6593 47.5116C49.7111 47.1376 49.8037 46.7767 49.937 46.4286C50.0702 46.0806 50.248 45.7696 50.4701 45.4956C50.6959 45.2217 50.9681 45.0069 51.2865 44.8514C51.6049 44.6959 51.9733 44.6237 52.3916 44.6348C52.7026 44.6422 52.9655 44.7033 53.1803 44.8181C53.395 44.9292 53.5672 45.0828 53.6967 45.279C53.83 45.4716 53.9189 45.6937 53.9633 45.9455C54.0114 46.1972 54.0225 46.4657 53.9966 46.7507L53.3246 50.7549H52.3194L52.9859 46.7952C53.0155 46.5434 53.0007 46.3213 52.9414 46.1287C52.8859 45.9362 52.7804 45.7844 52.6249 45.6734C52.4694 45.5586 52.2584 45.4975 51.9918 45.4901C51.6919 45.4827 51.4309 45.5345 51.2087 45.6456C50.9903 45.7567 50.807 45.9103 50.6589 46.1065C50.5145 46.2991 50.3979 46.5193 50.309 46.7674C50.2202 47.0118 50.1554 47.2635 50.1147 47.5227ZM53.9966 46.9562L53.2747 47.1673C53.3191 46.8229 53.4117 46.4971 53.5523 46.1898C53.6967 45.8825 53.8837 45.6104 54.1133 45.3735C54.3428 45.1365 54.6094 44.9514 54.913 44.8181C55.2166 44.6848 55.5516 44.6219 55.9182 44.6293C56.244 44.6367 56.5198 44.6978 56.7457 44.8125C56.9715 44.9236 57.1511 45.0773 57.2844 45.2735C57.4213 45.4697 57.512 45.6993 57.5565 45.9621C57.6046 46.2213 57.612 46.5027 57.5787 46.8063L56.9178 50.7549H55.9071L56.5735 46.7896C56.6031 46.5342 56.5902 46.3102 56.5346 46.1176C56.4828 45.9251 56.3791 45.7752 56.2236 45.6678C56.0681 45.5567 55.8534 45.4993 55.5794 45.4956C55.361 45.4882 55.161 45.5216 54.9796 45.5956C54.7982 45.6697 54.6408 45.7752 54.5076 45.9122C54.3743 46.0454 54.2632 46.2009 54.1743 46.3787C54.0892 46.5564 54.03 46.7489 53.9966 46.9562ZM58.6783 47.8504L58.695 47.7226C58.7394 47.3191 58.8394 46.9303 58.9949 46.5564C59.1541 46.1824 59.3632 45.8492 59.6224 45.5567C59.8816 45.2642 60.1889 45.0347 60.5443 44.8681C60.8997 44.7015 61.2959 44.6237 61.7328 44.6348C62.1548 44.6422 62.5158 44.7329 62.8157 44.907C63.1193 45.081 63.3637 45.3124 63.5488 45.6012C63.7376 45.8862 63.869 46.2083 63.9431 46.5675C64.0171 46.9266 64.0357 47.2969 63.9986 47.6782L63.9875 47.8059C63.9394 48.2095 63.8357 48.5964 63.6765 48.9666C63.5173 49.3369 63.3063 49.6664 63.0434 49.9552C62.7842 50.244 62.477 50.4717 62.1215 50.6383C61.7661 50.8012 61.3718 50.8771 60.9386 50.866C60.5202 50.8585 60.1593 50.7697 59.8557 50.5994C59.5558 50.4254 59.3133 50.1958 59.1281 49.9107C58.943 49.6257 58.8134 49.3054 58.7394 48.95C58.6653 48.5945 58.645 48.228 58.6783 47.8504ZM59.6946 47.7226L59.6835 47.8559C59.6576 48.0892 59.6557 48.3317 59.6779 48.5834C59.7039 48.8352 59.7631 49.0684 59.8557 49.2832C59.9519 49.4979 60.0908 49.6738 60.2722 49.8108C60.4536 49.9478 60.6887 50.02 60.9775 50.0274C61.2848 50.0348 61.5551 49.9755 61.7883 49.8496C62.0216 49.7201 62.2196 49.5461 62.3825 49.3276C62.5491 49.1092 62.6806 48.8667 62.7768 48.6001C62.8768 48.3335 62.9435 48.0688 62.9768 47.8059L62.9879 47.6782C63.0138 47.4449 63.0138 47.2024 62.9879 46.9507C62.9657 46.6952 62.9064 46.4583 62.8102 46.2398C62.7176 46.0177 62.5806 45.8381 62.3992 45.7011C62.2178 45.5604 61.9827 45.4864 61.6939 45.479C61.3866 45.4679 61.1145 45.529 60.8775 45.6622C60.6443 45.7918 60.4462 45.9677 60.2833 46.1898C60.1204 46.412 59.9889 46.6582 59.889 46.9285C59.7927 47.195 59.7279 47.4598 59.6946 47.7226ZM68.4248 49.1277C68.4582 48.8981 68.4156 48.7186 68.2971 48.589C68.1823 48.4594 68.0305 48.3613 67.8417 48.2946C67.6566 48.2243 67.4752 48.1669 67.2975 48.1225C67.0753 48.0669 66.8513 47.9985 66.6255 47.917C66.3996 47.8355 66.1923 47.7319 66.0035 47.606C65.8184 47.4764 65.6703 47.3172 65.5592 47.1284C65.4518 46.9359 65.4037 46.7026 65.4148 46.4286C65.4296 46.1324 65.5074 45.8714 65.648 45.6456C65.7924 45.4197 65.9776 45.2309 66.2034 45.0791C66.433 44.9273 66.6829 44.8144 66.9531 44.7404C67.2234 44.6663 67.4918 44.6311 67.7584 44.6348C68.1361 44.6422 68.4785 44.72 68.7858 44.8681C69.0968 45.0162 69.343 45.2291 69.5244 45.5067C69.7059 45.7844 69.791 46.1213 69.7799 46.5175L68.7858 46.5119C68.7932 46.3009 68.7506 46.1195 68.6581 45.9677C68.5655 45.8159 68.4378 45.6993 68.2749 45.6178C68.112 45.5327 67.9269 45.4882 67.7195 45.4845C67.5233 45.4808 67.3308 45.5123 67.142 45.5789C66.9531 45.6419 66.7921 45.7418 66.6588 45.8788C66.5255 46.0121 66.4441 46.1861 66.4144 46.4009C66.3922 46.5601 66.4163 46.6915 66.4866 46.7952C66.557 46.8951 66.6532 46.9766 66.7754 47.0395C66.9013 47.0988 67.0327 47.1488 67.1697 47.1895C67.3104 47.2265 67.4382 47.2598 67.5529 47.2894C67.8565 47.3746 68.1564 47.482 68.4526 47.6116C68.7488 47.7411 68.9895 47.9207 69.1746 48.1503C69.3597 48.3761 69.443 48.6741 69.4245 49.0444C69.4097 49.3591 69.3264 49.6331 69.1746 49.8663C69.0265 50.0959 68.834 50.2865 68.597 50.4383C68.3638 50.5864 68.1064 50.6956 67.8251 50.766C67.5437 50.8363 67.2623 50.8697 66.9809 50.866C66.5922 50.8585 66.2293 50.7789 65.8924 50.6272C65.5592 50.4717 65.2926 50.2495 65.0927 49.9607C64.8928 49.6682 64.7983 49.3128 64.8095 48.8944L65.8147 48.9C65.8147 49.1406 65.8646 49.3443 65.9646 49.5109C66.0683 49.6738 66.2108 49.7978 66.3922 49.883C66.5736 49.9681 66.781 50.0126 67.0142 50.0163C67.2105 50.02 67.4104 49.994 67.614 49.9385C67.8214 49.883 67.9991 49.7904 68.1472 49.6608C68.299 49.5275 68.3915 49.3498 68.4248 49.1277ZM73.9062 44.7459L73.7674 45.5345H70.6074L70.7462 44.7459H73.9062ZM72.068 43.2853H73.0676L72.0513 49.2776C72.0402 49.4072 72.0439 49.5238 72.0624 49.6275C72.0809 49.7312 72.1254 49.8145 72.1957 49.8774C72.2661 49.9367 72.3734 49.9681 72.5178 49.9718C72.5993 49.9718 72.6789 49.9663 72.7566 49.9552C72.8381 49.9404 72.9195 49.9274 73.001 49.9163L72.9288 50.7604C72.8103 50.7938 72.6881 50.8178 72.5623 50.8326C72.4401 50.8511 72.3179 50.8585 72.1957 50.8548C71.8884 50.8511 71.6478 50.7734 71.4738 50.6216C71.2997 50.4698 71.1813 50.2736 71.1183 50.0329C71.0554 49.7923 71.0369 49.5349 71.0628 49.261L72.068 43.2853ZM80.4539 49.7275L80.9537 46.623C80.9796 46.3935 80.9574 46.1917 80.8871 46.0177C80.8204 45.8437 80.7075 45.7085 80.5483 45.6123C80.3928 45.516 80.1966 45.4642 79.9596 45.4568C79.7523 45.4531 79.5487 45.4864 79.3487 45.5567C79.1525 45.6271 78.9822 45.7326 78.8378 45.8733C78.6934 46.014 78.599 46.1917 78.5546 46.4064L77.5549 46.412C77.5809 46.1121 77.6753 45.8511 77.8382 45.6289C78.0011 45.4031 78.2047 45.2161 78.4491 45.068C78.6934 44.9162 78.9563 44.8051 79.2377 44.7348C79.5191 44.6607 79.793 44.6256 80.0596 44.6293C80.4632 44.6367 80.813 44.7237 81.1092 44.8903C81.4091 45.0532 81.635 45.2828 81.7868 45.5789C81.9386 45.8751 81.9941 46.2306 81.9534 46.6452L81.4924 49.4442C81.4591 49.6479 81.4387 49.8534 81.4313 50.0607C81.4276 50.2643 81.4517 50.4642 81.5035 50.6605L81.4924 50.7549L80.4761 50.7604C80.4354 50.5901 80.415 50.418 80.415 50.244C80.4187 50.0699 80.4317 49.8978 80.4539 49.7275ZM81.0704 47.1117L80.9537 47.8337L80.0041 47.8281C79.8041 47.8281 79.5931 47.843 79.371 47.8726C79.1488 47.9022 78.9378 47.9577 78.7378 48.0392C78.5379 48.1206 78.3695 48.2391 78.2325 48.3946C78.0955 48.5464 78.0122 48.7445 77.9826 48.9888C77.9603 49.1888 77.9844 49.3628 78.0548 49.5109C78.1288 49.6553 78.2399 49.7682 78.388 49.8496C78.5361 49.9311 78.7082 49.9737 78.9045 49.9774C79.1599 49.9811 79.4117 49.9311 79.6597 49.8274C79.9078 49.7238 80.1244 49.5757 80.3095 49.3831C80.4946 49.1906 80.6224 48.9685 80.6927 48.7167L81.0592 49.211C80.9889 49.4553 80.8741 49.6812 80.7149 49.8885C80.5557 50.0922 80.3669 50.268 80.1485 50.4161C79.9337 50.5642 79.7023 50.679 79.4543 50.7604C79.2062 50.8419 78.9581 50.8808 78.7101 50.8771C78.3732 50.8697 78.0677 50.7938 77.7937 50.6494C77.5235 50.505 77.3087 50.3032 77.1495 50.044C76.994 49.7812 76.9274 49.4757 76.9496 49.1277C76.9718 48.7463 77.0718 48.4261 77.2495 48.1669C77.4272 47.9077 77.6549 47.7004 77.9326 47.5449C78.214 47.3894 78.5213 47.2783 78.8545 47.2117C79.1877 47.1414 79.5172 47.1062 79.843 47.1062L81.0704 47.1117ZM85.4021 42.2246L83.9193 50.7549H82.9141L84.3914 42.2246H85.4021ZM88.0901 42.2246L86.6073 50.7549H85.6021L87.0793 42.2246H88.0901ZM92.7606 50.0718L95.2931 44.7459H96.4038L92.8773 51.6879C92.7847 51.8841 92.6755 52.0729 92.5496 52.2544C92.4274 52.4358 92.2867 52.5987 92.1275 52.7431C91.972 52.8875 91.7962 53.0004 91.5999 53.0818C91.4037 53.1633 91.1871 53.204 90.9502 53.204C90.8502 53.2003 90.7502 53.1892 90.6503 53.1707C90.5466 53.1522 90.4467 53.1318 90.3504 53.1096L90.4115 52.2655C90.4559 52.2729 90.5003 52.2784 90.5448 52.2821C90.5892 52.2895 90.6318 52.2951 90.6725 52.2988C90.9206 52.3062 91.1334 52.271 91.3112 52.1933C91.4926 52.1155 91.6481 52.0007 91.7777 51.8489C91.9109 51.6971 92.0294 51.5157 92.1331 51.3047L92.7606 50.0718ZM92.483 44.7459L93.1994 49.4665L93.266 50.5272L92.5163 50.8937L91.4278 44.7459H92.483ZM96.3982 47.8504L96.4149 47.7226C96.4593 47.3191 96.5593 46.9303 96.7148 46.5564C96.874 46.1824 97.0832 45.8492 97.3424 45.5567C97.6015 45.2642 97.9088 45.0347 98.2642 44.8681C98.6197 44.7015 99.0158 44.6237 99.4527 44.6348C99.8748 44.6422 100.236 44.7329 100.536 44.907C100.839 45.081 101.084 45.3124 101.269 45.6012C101.458 45.8862 101.589 46.2083 101.663 46.5675C101.737 46.9266 101.756 47.2969 101.719 47.6782L101.707 47.8059C101.659 48.2095 101.556 48.5964 101.396 48.9666C101.237 49.3369 101.026 49.6664 100.763 49.9552C100.504 50.244 100.197 50.4717 99.8415 50.6383C99.486 50.8012 99.0917 50.8771 98.6586 50.866C98.2402 50.8585 97.8792 50.7697 97.5756 50.5994C97.2757 50.4254 97.0332 50.1958 96.8481 49.9107C96.663 49.6257 96.5334 49.3054 96.4593 48.95C96.3853 48.5945 96.3649 48.228 96.3982 47.8504ZM97.4145 47.7226L97.4034 47.8559C97.3775 48.0892 97.3757 48.3317 97.3979 48.5834C97.4238 48.8352 97.483 49.0684 97.5756 49.2832C97.6719 49.4979 97.8107 49.6738 97.9921 49.8108C98.1735 49.9478 98.4086 50.02 98.6974 50.0274C99.0047 50.0348 99.275 49.9755 99.5083 49.8496C99.7415 49.7201 99.9396 49.5461 100.102 49.3276C100.269 49.1092 100.401 48.8667 100.497 48.6001C100.597 48.3335 100.663 48.0688 100.697 47.8059L100.708 47.6782C100.734 47.4449 100.734 47.2024 100.708 46.9507C100.686 46.6952 100.626 46.4583 100.53 46.2398C100.438 46.0177 100.301 45.8381 100.119 45.7011C99.9377 45.5604 99.7026 45.4864 99.4138 45.479C99.1065 45.4679 98.8344 45.529 98.5975 45.6622C98.3642 45.7918 98.1661 45.9677 98.0032 46.1898C97.8403 46.412 97.7089 46.6582 97.6089 46.9285C97.5127 47.195 97.4479 47.4598 97.4145 47.7226ZM106.256 49.311L107.044 44.7459H108.055L107.011 50.7549H106.05L106.256 49.311ZM106.633 48.1003L107.044 48.0836C106.996 48.4613 106.911 48.8204 106.789 49.161C106.667 49.4979 106.5 49.7978 106.289 50.0607C106.082 50.3199 105.823 50.5235 105.512 50.6716C105.204 50.816 104.84 50.8826 104.418 50.8715C104.088 50.8604 103.812 50.7938 103.59 50.6716C103.372 50.5494 103.2 50.3846 103.074 50.1773C102.948 49.97 102.864 49.733 102.824 49.4665C102.783 49.1999 102.777 48.9185 102.807 48.6223L103.457 44.7459H104.462L103.812 48.639C103.797 48.8019 103.796 48.9629 103.807 49.1221C103.818 49.2776 103.851 49.4202 103.907 49.5498C103.962 49.6793 104.047 49.7849 104.162 49.8663C104.281 49.9441 104.436 49.9866 104.629 49.994C105.029 50.0089 105.367 49.9348 105.645 49.7719C105.923 49.6053 106.143 49.3757 106.306 49.0833C106.469 48.7908 106.578 48.4631 106.633 48.1003ZM113.137 46.0899L112.326 50.7549H111.321L112.365 44.7459H113.314L113.137 46.0899ZM112.67 47.5227L112.259 47.5116C112.311 47.1525 112.406 46.8007 112.543 46.4564C112.683 46.1084 112.866 45.7955 113.092 45.5179C113.322 45.2402 113.594 45.0217 113.909 44.8625C114.227 44.6996 114.59 44.6237 114.997 44.6348C115.319 44.6422 115.588 44.7052 115.802 44.8237C116.021 44.9384 116.191 45.0958 116.313 45.2957C116.436 45.4956 116.517 45.727 116.558 45.9899C116.598 46.2491 116.602 46.5249 116.569 46.8174L115.914 50.7549H114.903L115.569 46.8007C115.595 46.5601 115.586 46.3435 115.541 46.151C115.501 45.9547 115.408 45.7992 115.264 45.6845C115.123 45.566 114.919 45.503 114.653 45.4956C114.371 45.4882 114.118 45.5419 113.892 45.6567C113.666 45.7715 113.468 45.9288 113.298 46.1287C113.131 46.325 112.994 46.5453 112.887 46.7896C112.783 47.0303 112.711 47.2746 112.67 47.5227ZM119.962 50.866C119.551 50.8585 119.194 50.7771 118.89 50.6216C118.59 50.4624 118.344 50.2495 118.152 49.9829C117.963 49.7127 117.828 49.4054 117.746 49.061C117.665 48.7167 117.641 48.3557 117.674 47.9781L117.696 47.7393C117.733 47.3542 117.828 46.9766 117.979 46.6064C118.131 46.2324 118.333 45.8955 118.585 45.5956C118.84 45.2957 119.14 45.0588 119.484 44.8847C119.833 44.707 120.218 44.6237 120.64 44.6348C121.058 44.6422 121.406 44.7311 121.684 44.9014C121.961 45.0717 122.178 45.2976 122.333 45.5789C122.493 45.8566 122.596 46.1695 122.644 46.5175C122.693 46.8618 122.696 47.2154 122.656 47.5782L122.594 48.0392H118.235L118.368 47.2006L121.695 47.2061L121.711 47.1173C121.749 46.8507 121.734 46.5934 121.667 46.3453C121.6 46.0973 121.478 45.8936 121.301 45.7344C121.127 45.5715 120.891 45.4864 120.595 45.479C120.288 45.4679 120.021 45.5308 119.795 45.6678C119.57 45.8011 119.381 45.9825 119.229 46.2121C119.077 46.4379 118.957 46.686 118.868 46.9562C118.783 47.2228 118.724 47.4838 118.69 47.7393L118.668 47.9725C118.646 48.2095 118.653 48.4483 118.69 48.6889C118.727 48.9296 118.798 49.1499 118.901 49.3498C119.009 49.5461 119.157 49.7071 119.346 49.833C119.534 49.9552 119.768 50.02 120.045 50.0274C120.382 50.0348 120.684 49.9626 120.951 49.8108C121.221 49.6553 121.467 49.459 121.689 49.2221L122.261 49.7108C122.087 49.9663 121.88 50.181 121.639 50.355C121.399 50.529 121.136 50.6586 120.851 50.7438C120.566 50.8289 120.269 50.8697 119.962 50.866ZM125.816 50.866C125.405 50.8585 125.047 50.7771 124.744 50.6216C124.444 50.4624 124.198 50.2495 124.005 49.9829C123.816 49.7127 123.681 49.4054 123.6 49.061C123.518 48.7167 123.494 48.3557 123.527 47.9781L123.55 47.7393C123.587 47.3542 123.681 46.9766 123.833 46.6064C123.985 46.2324 124.187 45.8955 124.438 45.5956C124.694 45.2957 124.994 45.0588 125.338 44.8847C125.686 44.707 126.071 44.6237 126.493 44.6348C126.911 44.6422 127.26 44.7311 127.537 44.9014C127.815 45.0717 128.031 45.2976 128.187 45.5789C128.346 45.8566 128.45 46.1695 128.498 46.5175C128.546 46.8618 128.55 47.2154 128.509 47.5782L128.448 48.0392H124.088L124.222 47.2006L127.548 47.2061L127.565 47.1173C127.602 46.8507 127.587 46.5934 127.521 46.3453C127.454 46.0973 127.332 45.8936 127.154 45.7344C126.98 45.5715 126.745 45.4864 126.449 45.479C126.141 45.4679 125.875 45.5308 125.649 45.6678C125.423 45.8011 125.234 45.9825 125.082 46.2121C124.931 46.4379 124.81 46.686 124.722 46.9562C124.636 47.2228 124.577 47.4838 124.544 47.7393L124.522 47.9725C124.499 48.2095 124.507 48.4483 124.544 48.6889C124.581 48.9296 124.651 49.1499 124.755 49.3498C124.862 49.5461 125.01 49.7071 125.199 49.833C125.388 49.9552 125.621 50.02 125.899 50.0274C126.236 50.0348 126.538 49.9626 126.804 49.8108C127.074 49.6553 127.321 49.459 127.543 49.2221L128.115 49.7108C127.941 49.9663 127.733 50.181 127.493 50.355C127.252 50.529 126.989 50.6586 126.704 50.7438C126.419 50.8289 126.123 50.8697 125.816 50.866ZM133.013 49.5275L134.279 42.2246H135.29L133.807 50.7549H132.891L133.013 49.5275ZM129.392 47.8615L129.403 47.7448C129.451 47.3746 129.54 47.0044 129.67 46.6341C129.803 46.2639 129.983 45.9251 130.208 45.6178C130.434 45.3105 130.708 45.0662 131.03 44.8847C131.353 44.7033 131.728 44.6182 132.158 44.6293C132.543 44.6404 132.865 44.7311 133.124 44.9014C133.383 45.0717 133.587 45.2976 133.735 45.5789C133.887 45.8566 133.989 46.1621 134.04 46.4953C134.096 46.8285 134.113 47.1636 134.09 47.5005L134.029 48.0114C133.966 48.3705 133.863 48.7223 133.718 49.0666C133.574 49.4109 133.387 49.7219 133.157 49.9996C132.932 50.2736 132.659 50.4902 132.341 50.6494C132.026 50.8086 131.665 50.8826 131.258 50.8715C130.866 50.8567 130.54 50.7549 130.281 50.5661C130.025 50.3772 129.825 50.1347 129.681 49.8385C129.54 49.5386 129.448 49.2165 129.403 48.8722C129.362 48.5242 129.359 48.1873 129.392 47.8615ZM130.425 47.7337L130.414 47.8504C130.388 48.0725 130.379 48.3076 130.386 48.5557C130.397 48.8 130.44 49.0314 130.514 49.2499C130.588 49.4646 130.708 49.6423 130.875 49.783C131.042 49.92 131.267 49.994 131.552 50.0051C131.856 50.0126 132.137 49.9441 132.397 49.7997C132.656 49.6553 132.878 49.4627 133.063 49.2221C133.248 48.9814 133.381 48.7204 133.463 48.439L133.679 47.0895C133.691 46.8859 133.666 46.6915 133.607 46.5064C133.548 46.3176 133.459 46.1491 133.341 46.001C133.226 45.8529 133.083 45.7344 132.913 45.6456C132.746 45.553 132.559 45.5049 132.352 45.5012C132.041 45.4901 131.773 45.5512 131.547 45.6845C131.321 45.814 131.13 45.9899 130.975 46.2121C130.823 46.4305 130.703 46.673 130.614 46.9396C130.525 47.2061 130.462 47.4709 130.425 47.7337Z" fill="#DDDDDD" fill-opacity="0.866667"/>
</svg>
